<svg 
 xmlns="http://www.w3.org/2000/svg"
 xmlns:xlink="http://www.w3.org/1999/xlink"
 width="45px" height="20px">
<text kerning="auto" font-family="DejaVuSans" fill="rgb(0, 0, 0)" font-size="13px" x="30px" y="11.998px"><tspan font-size="13px" font-family="Lato" fill="#FFFFFF">&#49;&#50;</tspan></text>
<path fill-rule="evenodd"  fill="rgb(255, 255, 255)"
 d="M16.000,16.000 L5.000,16.000 C4.450,16.000 4.000,15.550 4.000,15.000 L4.000,13.000 L17.000,13.000 L17.000,4.000 L19.000,4.000 C19.550,4.000 20.000,4.450 20.000,5.000 L20.000,20.000 L16.000,16.000 ZM14.000,11.000 L4.000,11.000 L-0.000,15.000 L-0.000,0.999 C-0.000,0.449 0.450,-0.001 1.000,-0.001 L14.000,-0.001 C14.550,-0.001 15.000,0.449 15.000,0.999 L15.000,9.999 C15.000,10.549 14.550,11.000 14.000,11.000 Z"/>
</svg>