<svg 
 xmlns="http://www.w3.org/2000/svg"
 xmlns:xlink="http://www.w3.org/1999/xlink"
 width="8px" height="16px">
<path fill-rule="evenodd"  fill-opacity="0.302" fill="rgb(255, 255, 255)"
 d="M-0.000,5.230 L-0.000,7.965 L1.675,7.965 L1.675,16.000 L4.897,16.000 L4.897,7.931 L7.145,7.931 L7.384,5.230 L4.897,5.230 C4.897,5.230 4.897,4.222 4.897,3.692 C4.897,3.055 5.025,2.803 5.641,2.803 C6.137,2.803 7.384,2.803 7.384,2.803 L7.384,-0.000 C7.384,-0.000 5.546,-0.000 5.153,-0.000 C2.756,-0.000 1.675,1.055 1.675,3.076 C1.675,4.837 1.675,5.230 1.675,5.230 L-0.000,5.230 Z"/>
</svg>