<svg 
 xmlns="http://www.w3.org/2000/svg"
 xmlns:xlink="http://www.w3.org/1999/xlink"
 width="16px" height="16px">
<path fill-rule="evenodd"  fill-opacity="0.302" fill="rgb(255, 255, 255)"
 d="M14.154,16.000 L1.845,16.000 C0.826,16.000 -0.000,15.173 -0.000,14.152 L-0.000,1.846 C-0.000,0.825 0.826,-0.000 1.845,-0.000 L14.154,-0.000 C15.173,-0.000 16.000,0.825 16.000,1.846 L16.000,14.152 C16.000,15.173 15.173,16.000 14.154,16.000 ZM3.239,6.768 L1.845,6.768 L1.845,13.537 C1.845,13.877 2.121,14.152 2.462,14.152 L13.538,14.152 C13.878,14.152 14.154,13.877 14.154,13.537 L14.154,6.768 L12.761,6.768 C12.863,7.162 12.922,7.574 12.922,7.999 C12.922,10.718 10.719,12.922 8.000,12.922 C5.281,12.922 3.077,10.718 3.077,7.999 C3.077,7.574 3.137,7.162 3.239,6.768 ZM8.000,4.922 C6.300,4.922 4.923,6.300 4.923,7.999 C4.923,9.698 6.300,11.076 8.000,11.076 C9.699,11.076 11.077,9.698 11.077,7.999 C11.077,6.300 9.699,4.922 8.000,4.922 ZM14.277,2.485 C14.277,2.132 13.990,1.846 13.636,1.846 L11.717,1.846 C11.363,1.846 11.077,2.132 11.077,2.485 L11.077,4.405 C11.077,4.759 11.363,5.046 11.717,5.046 L13.636,5.046 C13.990,5.046 14.277,4.759 14.277,4.405 L14.277,2.485 Z"/>
</svg>