<svg 
 xmlns="http://www.w3.org/2000/svg"
 xmlns:xlink="http://www.w3.org/1999/xlink"
 width="13px" height="16px">
<path fill-rule="evenodd"  fill-opacity="0.302" fill="rgb(255, 255, 255)"
 d="M6.568,-0.000 C2.201,-0.000 -0.000,3.130 -0.000,5.741 C-0.000,7.321 0.598,8.728 1.882,9.252 C2.092,9.337 2.281,9.254 2.342,9.021 C2.384,8.861 2.485,8.453 2.529,8.284 C2.591,8.054 2.567,7.973 2.397,7.772 C2.027,7.335 1.791,6.770 1.791,5.969 C1.791,3.647 3.529,1.568 6.315,1.568 C8.784,1.568 10.139,3.076 10.139,5.090 C10.139,7.740 8.967,9.976 7.226,9.976 C6.264,9.976 5.545,9.181 5.775,8.206 C6.052,7.042 6.587,5.785 6.587,4.945 C6.587,4.193 6.183,3.565 5.347,3.565 C4.364,3.565 3.575,4.581 3.575,5.944 C3.575,6.811 3.868,7.398 3.868,7.398 C3.868,7.398 2.862,11.659 2.686,12.406 C2.335,13.892 2.633,15.714 2.659,15.898 C2.673,16.007 2.813,16.033 2.877,15.951 C2.968,15.832 4.138,14.388 4.536,12.943 C4.648,12.534 5.182,10.417 5.182,10.417 C5.502,11.026 6.435,11.563 7.427,11.563 C10.382,11.563 12.386,8.870 12.386,5.265 C12.386,2.538 10.077,-0.000 6.568,-0.000 L6.568,-0.000 Z"/>
</svg>