<svg 
 xmlns="http://www.w3.org/2000/svg"
 xmlns:xlink="http://www.w3.org/1999/xlink"
 width="16px" height="13px">
<path fill-rule="evenodd"  fill-opacity="0.302" fill="rgb(255, 255, 255)"
 d="M16.000,1.539 C15.411,1.800 14.778,1.976 14.115,2.055 C14.792,1.650 15.313,1.006 15.558,0.239 C14.923,0.615 14.221,0.889 13.473,1.036 C12.874,0.398 12.021,-0.000 11.077,-0.000 C8.958,-0.000 7.401,1.977 7.879,4.030 C5.152,3.893 2.733,2.586 1.114,0.600 C0.254,2.076 0.668,4.006 2.129,4.983 C1.591,4.966 1.085,4.818 0.643,4.572 C0.607,6.093 1.697,7.515 3.276,7.832 C2.814,7.958 2.307,7.987 1.793,7.888 C2.211,9.192 3.423,10.141 4.860,10.168 C3.479,11.250 1.741,11.733 -0.000,11.528 C1.452,12.459 3.178,13.002 5.032,13.002 C11.126,13.002 14.569,7.855 14.362,3.238 C15.003,2.775 15.559,2.197 16.000,1.539 L16.000,1.539 Z"/>
</svg>