<svg 
 xmlns="http://www.w3.org/2000/svg"
 xmlns:xlink="http://www.w3.org/1999/xlink"
 width="53px" height="16px">
<text kerning="auto" font-family="DejaVuSans" fill="rgb(0, 0, 0)" font-size="13px" x="31px" y="9.99800000000005px"><tspan font-size="13px" font-family="Lato" fill="#FFFFFF">&#50;&#55;&#53;</tspan></text>
<path fill-rule="evenodd"  fill="rgb(255, 255, 255)"
 d="M11.000,15.499 C6.000,15.499 1.730,12.390 -0.000,7.999 C1.730,3.609 6.000,0.500 11.000,0.500 C16.000,0.500 20.270,3.609 22.000,7.999 C20.270,12.390 16.000,15.499 11.000,15.499 ZM11.000,3.000 C8.240,3.000 6.000,5.239 6.000,7.999 C6.000,10.760 8.240,13.000 11.000,13.000 C13.760,13.000 16.000,10.760 16.000,7.999 C16.000,5.239 13.760,3.000 11.000,3.000 ZM11.000,11.000 C9.340,11.000 8.000,9.660 8.000,7.999 C8.000,6.339 9.340,5.000 11.000,5.000 C12.660,5.000 14.000,6.339 14.000,7.999 C14.000,9.660 12.660,11.000 11.000,11.000 Z"/>
</svg>