<svg 
 xmlns="http://www.w3.org/2000/svg"
 xmlns:xlink="http://www.w3.org/1999/xlink"
 width="50px" height="50px">
<path fill-rule="evenodd"  fill="rgb(29, 31, 36)"
 d="M50.000,-0.000 L-0.000,-0.000 L-0.000,49.999 L50.000,49.999 L50.000,-0.000 Z"/>
<path fill-rule="evenodd"  fill="rgb(255, 255, 255)"
 d="M17.881,24.286 L17.857,24.291 L28.356,24.291 L25.056,20.983 C24.894,20.822 24.805,20.603 24.805,20.373 C24.805,20.143 24.894,19.926 25.056,19.764 L25.569,19.250 C25.731,19.089 25.946,19.000 26.175,19.000 C26.405,19.000 26.620,19.089 26.782,19.250 L32.439,24.907 C32.602,25.069 32.690,25.285 32.690,25.515 C32.690,25.746 32.602,25.962 32.439,26.124 L26.782,31.781 C26.620,31.943 26.405,32.032 26.175,32.032 C25.946,32.032 25.731,31.943 25.569,31.781 L25.056,31.268 C24.894,31.106 24.805,30.891 24.805,30.662 C24.805,30.432 24.894,30.228 25.056,30.067 L28.393,26.740 L17.870,26.740 C17.397,26.740 17.000,26.333 17.000,25.860 L17.000,25.134 C17.000,24.661 17.409,24.286 17.881,24.286 Z"/>
</svg>