<svg 
 xmlns="http://www.w3.org/2000/svg"
 xmlns:xlink="http://www.w3.org/1999/xlink"
 width="50px" height="50px">
<path fill-rule="evenodd"  fill="rgb(29, 31, 36)"
 d="M-0.000,-0.000 L50.000,-0.000 L50.000,49.999 L-0.000,49.999 L-0.000,-0.000 Z"/>
<path fill-rule="evenodd"  fill="rgb(255, 255, 255)"
 d="M31.808,24.286 L31.832,24.291 L21.333,24.291 L24.634,20.983 C24.795,20.822 24.884,20.603 24.884,20.373 C24.884,20.143 24.795,19.926 24.634,19.764 L24.120,19.250 C23.959,19.089 23.743,19.000 23.514,19.000 C23.285,19.000 23.069,19.089 22.908,19.250 L17.250,24.907 C17.088,25.069 16.999,25.285 17.000,25.515 C16.999,25.746 17.088,25.962 17.250,26.124 L22.908,31.781 C23.069,31.943 23.284,32.032 23.514,32.032 C23.743,32.032 23.959,31.943 24.120,31.781 L24.634,31.268 C24.795,31.106 24.884,30.891 24.884,30.662 C24.884,30.432 24.795,30.228 24.634,30.067 L21.296,26.740 L31.819,26.740 C32.292,26.740 32.690,26.333 32.690,25.860 L32.690,25.134 C32.690,24.661 32.281,24.286 31.808,24.286 Z"/>
</svg>